<svg id="visual" viewBox="0 0 960 540" width="960" height="540" xmlns="http://www.w3.org/2000/svg" xmlns:xlink="http://www.w3.org/1999/xlink" version="1.1"><rect x="0" y="0" width="960" height="540" fill="#191919"></rect><defs><linearGradient id="grad1_0" x1="43.8%" y1="0%" x2="100%" y2="100%"><stop offset="14.444444444444446%" stop-color="#fbae3c" stop-opacity="1"></stop><stop offset="85.55555555555554%" stop-color="#fbae3c" stop-opacity="1"></stop></linearGradient></defs><defs><linearGradient id="grad1_1" x1="43.8%" y1="0%" x2="100%" y2="100%"><stop offset="14.444444444444446%" stop-color="#fbae3c" stop-opacity="1"></stop><stop offset="85.55555555555554%" stop-color="#825e2e" stop-opacity="1"></stop></linearGradient></defs><defs><linearGradient id="grad1_2" x1="43.8%" y1="0%" x2="100%" y2="100%"><stop offset="14.444444444444446%" stop-color="#191919" stop-opacity="1"></stop><stop offset="85.55555555555554%" stop-color="#825e2e" stop-opacity="1"></stop></linearGradient></defs><defs><linearGradient id="grad2_0" x1="0%" y1="0%" x2="56.3%" y2="100%"><stop offset="14.444444444444446%" stop-color="#fbae3c" stop-opacity="1"></stop><stop offset="85.55555555555554%" stop-color="#fbae3c" stop-opacity="1"></stop></linearGradient></defs><defs><linearGradient id="grad2_1" x1="0%" y1="0%" x2="56.3%" y2="100%"><stop offset="14.444444444444446%" stop-color="#825e2e" stop-opacity="1"></stop><stop offset="85.55555555555554%" stop-color="#fbae3c" stop-opacity="1"></stop></linearGradient></defs><defs><linearGradient id="grad2_2" x1="0%" y1="0%" x2="56.3%" y2="100%"><stop offset="14.444444444444446%" stop-color="#825e2e" stop-opacity="1"></stop><stop offset="85.55555555555554%" stop-color="#191919" stop-opacity="1"></stop></linearGradient></defs><g transform="translate(960, 0)"><path d="M0 324C-59 316.8 -117.9 309.7 -162 280.6C-206.1 251.5 -235.3 200.4 -259.8 150C-284.3 99.6 -304.2 49.8 -324 0L0 0Z" fill="#3b48c4"></path><path d="M0 216C-39.3 211.2 -78.6 206.5 -108 187.1C-137.4 167.7 -156.9 133.6 -173.2 100C-189.6 66.4 -202.8 33.2 -216 0L0 0Z" fill="#35419b"></path><path d="M0 108C-19.7 105.6 -39.3 103.2 -54 93.5C-68.7 83.8 -78.4 66.8 -86.6 50C-94.8 33.2 -101.4 16.6 -108 0L0 0Z" fill="#5865f2"></path></g><g transform="translate(0, 540)"><path d="M0 -324C61.5 -318.3 123 -312.6 162 -280.6C201 -248.6 217.5 -190.2 240.8 -139C264 -87.8 294 -43.9 324 0L0 0Z" fill="#3b48c4"></path><path d="M0 -216C41 -212.2 82 -208.4 108 -187.1C134 -165.7 145 -126.8 160.5 -92.7C176 -58.6 196 -29.3 216 0L0 0Z" fill=" #35419b"></path><path d="M0 -108C20.5 -106.1 41 -104.2 54 -93.5C67 -82.9 72.5 -63.4 80.3 -46.3C88 -29.3 98 -14.6 108 0L0 0Z" fill="#5865f2"></path></g></svg>