<svg id="visual" viewBox="0 0 900 600" width="900" height="600" xmlns="http://www.w3.org/2000/svg" xmlns:xlink="http://www.w3.org/1999/xlink" version="1.1"><rect x="0" y="0" width="900" height="600" fill="#5865f2"></rect><defs><linearGradient id="grad1_0" x1="33.3%" y1="100%" x2="100%" y2="0%"><stop offset="20%" stop-color="#5865f2" stop-opacity="1"></stop><stop offset="80%" stop-color="#5865f2" stop-opacity="1"></stop></linearGradient></defs><defs><linearGradient id="grad1_1" x1="33.3%" y1="100%" x2="100%" y2="0%"><stop offset="20%" stop-color="#35419b" stop-opacity="1"></stop><stop offset="80%" stop-color="#5865f2" stop-opacity="1"></stop></linearGradient></defs><defs><linearGradient id="grad2_0" x1="0%" y1="100%" x2="66.7%" y2="0%"><stop offset="20%" stop-color="#5865f2" stop-opacity="1"></stop><stop offset="80%" stop-color="#5865f2" stop-opacity="1"></stop></linearGradient></defs><defs><linearGradient id="grad2_1" x1="0%" y1="100%" x2="66.7%" y2="0%"><stop offset="20%" stop-color="#5865f2" stop-opacity="1"></stop><stop offset="80%" stop-color="#5865f2" stop-opacity="1"></stop></linearGradient></defs><g transform="translate(900, 600)"><path d="M-378.6 0C-367.9 -51.2 -357.3 -102.4 -328.9 -136.2C-300.5 -170.1 -254.4 -186.5 -224.2 -224.2C-193.9 -261.8 -179.6 -320.5 -144.9 -349.8C-110.2 -379 -55.1 -378.8 0 -378.6L0 0Z" fill="#5865f2"></path><path d="M-189.3 0C-184 -25.6 -178.6 -51.2 -164.5 -68.1C-150.3 -85 -127.2 -93.3 -112.1 -112.1C-97 -130.9 -89.8 -160.3 -72.4 -174.9C-55.1 -189.5 -27.5 -189.4 0 -189.3L0 0Z" fill="#35419b"></path></g><g transform="translate(0, 0)"><path d="M378.6 0C344.1 38.1 309.6 76.1 294.7 122.1C279.9 168 284.7 221.9 263 263C241.4 304.2 193.1 332.6 144.9 349.8C96.6 366.9 48.3 372.7 0 378.6L0 0Z" fill="#35419b"></path><path d="M189.3 0C172 19 154.8 38.1 147.4 61C139.9 84 142.4 110.9 131.5 131.5C120.7 152.1 96.6 166.3 72.4 174.9C48.3 183.5 24.2 186.4 0 189.3L0 0Z" fill="#5865f2"></path></g></svg>