<svg id="visual" viewBox="0 0 900 600" width="900" height="600" xmlns="http://www.w3.org/2000/svg" xmlns:xlink="http://www.w3.org/1999/xlink" version="1.1"><rect x="0" y="0" width="900" height="600" fill="#191919"></rect><defs><linearGradient id="grad1_0" x1="33.3%" y1="100%" x2="100%" y2="0%"><stop offset="20%" stop-color="#fbae3c" stop-opacity="1"></stop><stop offset="80%" stop-color="#fbae3c" stop-opacity="1"></stop></linearGradient></defs><defs><linearGradient id="grad1_1" x1="33.3%" y1="100%" x2="100%" y2="0%"><stop offset="20%" stop-color="#fbae3c" stop-opacity="1"></stop><stop offset="80%" stop-color="#191919" stop-opacity="1"></stop></linearGradient></defs><defs><linearGradient id="grad2_0" x1="0%" y1="100%" x2="66.7%" y2="0%"><stop offset="20%" stop-color="#fbae3c" stop-opacity="1"></stop><stop offset="80%" stop-color="#fbae3c" stop-opacity="1"></stop></linearGradient></defs><defs><linearGradient id="grad2_1" x1="0%" y1="100%" x2="66.7%" y2="0%"><stop offset="20%" stop-color="#191919" stop-opacity="1"></stop><stop offset="80%" stop-color="#fbae3c" stop-opacity="1"></stop></linearGradient></defs><g transform="translate(900, 600)"><path d="M-324.5 0C-317.6 -59.6 -310.8 -119.1 -281 -162.2C-251.3 -205.4 -198.7 -232 -148 -256.3C-97.3 -280.6 -48.7 -302.6 0 -324.5L0 0Z" fill="#35419b"></path><path d="M-162.2 0C-158.8 -29.8 -155.4 -59.6 -140.5 -81.1C-125.6 -102.7 -99.3 -116 -74 -128.2C-48.7 -140.3 -24.3 -151.3 0 -162.2L0 0Z" fill="#5865f2"></path></g><g transform="translate(0, 0)"><path d="M324.5 0C298 46 271.4 92 247.7 143C224 194 203.1 249.9 162.2 281C121.4 312.1 60.7 318.3 0 324.5L0 0Z" fill="#35419b"></path><path d="M162.2 0C149 23 135.7 46 123.8 71.5C112 97 101.5 125 81.1 140.5C60.7 156.1 30.4 159.2 0 162.2L0 0Z" fill="#5865f2"></path></g></svg>